# xmcd
#
# Track frame offsets:
#  150
#  771
#  32474
#  43174
#  58639
#  74717
#  83683
#  106058
#  121185
#  139158
#  156204
#  175305
#  192019
#
# Disc length: 2677 seconds
#
# Revision: 0
# Processed by: cddbd v1.5.1PL2 Copyright (c) Steve Scherf et al.
# Submitted via: Collectorz.com_Music_Collector 6.11
#
DISCID=9f0a730d
DTITLE=Big George Brock - Round Two
DYEAR=2006
DGENRE=Blues
TTITLE0=Intro
TTITLE1=So Long
TTITLE2=No No Baby
TTITLE3=Poor Boy
TTITLE4=Rockin' Chair
TTITLE5=Mattson, Ms
TTITLE6=Mr. Wal Mart
TTITLE7=Shake For Me
TTITLE8=Arkansas To Memphis
TTITLE9=Round Two
TTITLE10=Sugar Mama
TTITLE11=Burden Down
TTITLE12=Call Me A Lover (Solo)
EXTD=
EXTT0=
EXTT1=
EXTT2=
EXTT3=
EXTT4=
EXTT5=
EXTT6=
EXTT7=
EXTT8=
EXTT9=
EXTT10=
EXTT11=
EXTT12=
PLAYORDER=
